<svg xmlns="http://www.w3.org/2000/svg" width="40" height="40" fill="none" viewBox="0 0 40 40">
  <path fill="#660018" d="M40 28.38C40 35.66 35.66 40 28.38 40H26c-1.1 0-2-.9-2-2V26.46c0-.54.44-1 .98-1l3.52-.06c.28-.02.52-.22.58-.5l.7-3.82c.06-.36-.22-.7-.6-.7l-4.26.06c-.56 0-1-.44-1.02-.98l-.08-4.9c0-.32.26-.6.6-.6l4.8-.08c.34 0 .6-.26.6-.6l-.08-4.8c0-.34-.26-.6-.6-.6l-5.4.08a5.993 5.993 0 0 0-5.9 6.1l.1 5.5c.02.56-.42 1-.98 1.02l-2.4.04c-.34 0-.6.26-.6.6l.06 3.8c0 .34.26.6.6.6l2.4-.04c.56 0 1 .44 1.02.98l.18 11.4c.02 1.12-.88 2.04-2 2.04h-4.6C4.34 40 0 35.66 0 28.36V11.62C0 4.34 4.34 0 11.62 0h16.76C35.66 0 40 4.34 40 11.62v16.76Z"/>
</svg>
