<svg xmlns="http://www.w3.org/2000/svg" width="58" height="45" fill="none" viewBox="0 0 58 45">
  <path fill="#660018" d="M28.167 11.674 9.645 26.93v16.464A1.607 1.607 0 0 0 11.253 45l11.257-.03a1.608 1.608 0 0 0 1.6-1.606v-9.615a1.607 1.607 0 0 1 1.607-1.608h6.429a1.608 1.608 0 0 1 1.607 1.608v9.607a1.607 1.607 0 0 0 1.608 1.613L46.614 45a1.607 1.607 0 0 0 1.607-1.607V26.918L29.704 11.674a1.224 1.224 0 0 0-1.537 0Zm29.256 10.368-8.398-6.922V1.205A1.205 1.205 0 0 0 47.819 0h-5.625a1.206 1.206 0 0 0-1.206 1.205V8.5l-8.994-7.4a4.822 4.822 0 0 0-6.128 0L.437 22.042a1.206 1.206 0 0 0-.16 1.698l2.561 3.114a1.206 1.206 0 0 0 1.7.164L28.166 7.555a1.225 1.225 0 0 1 1.537 0l23.63 19.463a1.207 1.207 0 0 0 1.698-.16l2.562-3.115a1.209 1.209 0 0 0 .13-1.337 1.206 1.206 0 0 0-.3-.364Z"/>
</svg>
