<svg xmlns="http://www.w3.org/2000/svg" width="40" height="40" fill="none" viewBox="0 0 40 40">
  <path fill="#660018" d="M28.38 0H11.62C4.34 0 0 4.34 0 11.62v16.74C0 35.66 4.34 40 11.62 40h16.74c7.28 0 11.62-4.34 11.62-11.62V11.62C40 4.34 35.66 0 28.38 0ZM20 27.76c-4.28 0-7.76-3.48-7.76-7.76 0-4.28 3.48-7.76 7.76-7.76 4.28 0 7.76 3.48 7.76 7.76 0 4.28-3.48 7.76-7.76 7.76Zm11.84-18c-.1.24-.24.46-.42.66-.2.18-.42.32-.66.42a1.98 1.98 0 0 1-2.18-.42c-.18-.2-.32-.42-.42-.66-.1-.24-.16-.5-.16-.76s.06-.52.16-.76c.1-.26.24-.46.42-.66.46-.46 1.16-.68 1.8-.54.14.02.26.06.38.12.12.04.24.1.36.18.1.06.2.16.3.24.18.2.32.4.42.66.1.24.16.5.16.76s-.06.52-.16.76Z"/>
</svg>
