<svg xmlns="http://www.w3.org/2000/svg" width="545" height="465" fill="none" viewBox="0 0 545 465">
  <path fill="#CAC5D3" fill-opacity=".5" d="M543.432 261.591c-4.414-55.103-21.059-106.799-51.544-153.176C459.733 59.588 416.66 23.67 361.298 3.768c-7.636-2.749-16.704-4.721-24.34-3.287-16.764 3.227-32.931 9.024-47.547 18.587-20.582 13.506-33.468 33.647-46.772 53.429-4.295 6.454-7.039 13.925-10.857 21.635.298 0-.239.06-.597-.12-2.088-1.136-4.116-2.39-6.204-3.526-40.21-22.89-82.924-34.663-129.517-29.225-4.951.598-10.38 1.674-14.914.359-12.588-3.586-20.82 3.167-28.099 11.176-14.675 16.136-26.786 34.364-34.78 54.624-7.159 17.81-14.795 36.277-16.823 55.103-3.52 32.272 4.235 63.648 17.48 93.351 26.249 58.928 70.097 101.719 124.624 134.23 33.527 20.021 69.083 35.62 107.502 43.628 20.881 4.363 41.999 8.307 63.237 10.28 32.454 2.988 64.669-1.375 96.884-5.439 14.974-1.912 30.008-4.183 42.715-12.909 38.002-26.057 65.563-60.9 83.162-103.392 10.739-25.937 9.128-53.728 6.98-80.681ZM246.696 89.231c-.477-3.108 1.909-6.813 2.923-10.28 1.79-4.542 22.909-41.775 44.385-49.783-3.639 11.355-6.98 21.635-10.261 31.974-1.014 4.123-1.73 10.16-1.968 14.761 1.849 23.786 7.218 47.154 14.974 70.582-7.935-4.004-23.505-19.782-35.258-28.747-11.812-8.964-14.974-23.666-14.855-28.567h.12l-.06.06Zm228.548 321.351c-23.147 21.635-61.507 33.528-104.938 34.544-55.302 1.255-73.498-2.988-86.026-5.259-.119 0-.238-.12-.358-.179-15.153-2.51-30.246-6.037-45.22-10.818-49.218-15.658-94.975-38.189-135.781-70.223-2.267-1.733-4.295-3.765-6.681-5.438-.716-.478-1.253-.956-1.67-1.434-63.655-51.039-78.39-110.743-81.314-124.788-2.326-15.18-9.068-29.942-2.983-46.078C21.191 132.56 44.576 107.22 50.84 99.51c.836.18 1.67.359 2.446.538-1.014 5.439-2.028 10.937-3.042 16.375l.239 9.443c1.55 8.965 2.565 18.049 4.892 26.834 10.44 39.445 31.38 73.211 58.822 102.795 15.809 17.092 32.453 33.647 50.291 48.528 34.064 28.448 73.319 47.811 115.437 61.497 31.977 10.399 63.834 21.097 97.421 25.281 6.98.896 14.019 1.374 20.999 2.091 10.5.538 20.88.12 25.593-.358 23.446-4.303 45.221-12.67 65.803-25.28 3.997-2.092 8.59-4.602 11.096-7.71 9.426-11.654 18.911-23.368 28.337-35.022-2.863 13.686-17.897 52.413-53.93 86.001v.059Zm50.649-97.296c-30.783 44.106-72.961 64.964-126.832 61.617-37.823-2.39-73.2-14.702-108.755-26.415-42.834-14.164-83.64-32.93-119.196-60.9-45.161-35.56-82.089-78.411-104.281-132.378-7.517-18.287-10.082-37.352-3.759-56.656 1.969-6.036 5.13-11.773 8.173-17.391.895-1.614 3.222-3.287 4.952-3.407 29.292-1.374 58.822-4.84 87.637 2.75 55.422 14.641 101.895 43.448 136.436 90.064 8.114 10.937 13.543 23.069 13.364 37.054 0 1.255-.597 2.569-.895 3.824-5.011-31.077-25.713-50.799-48.203-69.087-39.971-32.512-85.669-52.533-136.616-59.704-11.275-1.614-23.505-.956-34.601 1.613C80.669 87.2 76.85 98.375 82.22 109.371c.239-.418.656-.836.597-1.195-3.878-16.435 7.934-21.933 20.94-22.352 28.218-.956 54.765 6.813 80.836 16.256 40.686 14.702 75.824 38.189 104.34 70.761 7.159 8.128 12.529 18.646 16.108 28.985 4.474 13.029-.656 23.607-11.932 31.377-12.349 8.486-12.11 8.068-24.399.298-8.651-5.438-17.719-10.518-27.204-14.283-24.997-9.981-44.803-27.014-63.535-45.54-7.279-7.232-14.259-14.762-21.417-22.173-1.492-1.554-2.864-3.407-4.654-4.363-2.147-1.135-4.713-1.374-7.099-2.032-.179 2.451-1.193 5.26-.358 7.232 2.386 5.677 4.594 11.893 8.531 16.375 38.002 43.747 77.972 85.463 129.934 113.014 31.738 16.854 65.385 26.237 101.895 22.471 18.613-1.912 36.033-7.291 51.425-17.929 10.738-7.47 18.494-17.81 23.505-29.942.895-2.211.417-5.08.716-9.681-5.847 6.394-9.784 11.175-14.199 15.419-21.178 20.319-47.606 25.34-75.407 24.144-38.896-1.673-73.498-16.853-106.369-36.755-.835-.478-1.79-.777-2.625-1.135l1.73-2.869c5.727 2.51 11.454 4.961 17.122 7.59 17.658 8.308 34.601 18.766 53.035 24.563 23.923 7.59 45.161-2.45 62.939-18.586 7.994-7.232 15.093-16.137 20.582-25.4 8.232-13.925 16.286-28.866 18.016-44.883 2.685-24.922-2.923-49.007-16.286-70.641-5.906-9.622-11.693-10.1-19.747-2.45 19.627-1.614 21.536 13.387 26.488 26.057 8.71 22.172 5.131 42.97-6.324 62.872-5.369 9.263-10.917 18.526-17.42 27.013-2.804 3.705-8.173 5.438-12.349 8.068-.596-.777-1.253-1.494-1.849-2.271 1.551-2.092 2.625-4.96 4.713-6.096 18.255-9.98 27.204-25.997 30.664-45.899 3.281-18.945-1.551-45.42-12.886-61.497.238 2.63.477 5.259.775 7.889 1.85 14.881 4.833 29.703 5.19 44.584.358 13.985-6.502 25.758-18.195 34.006-1.551 1.075-4.116.717-7.577 1.195-.775 4.781-6.264 5.976-11.275 4.363-8.65-2.869-18.136-5.558-24.937-11.116-26.726-21.695-43.729-50.382-53.333-83.132-4.117-14.045-6.861-28.866-7.577-43.509-1.253-24.383 8.591-43.209 30.127-56.895 11.633-7.351 21.358-8.128 33.766-4.124C427.1 39.746 474.349 86.661 504.237 152.581c19.329 42.612 28.099 87.494 30.247 133.991.477 10.279-3.281 18.826-8.77 26.655l.179.059Zm-200.27-96.339c7.517 1.673 17.3 3.645 21.596 4.9 4.295 1.255 20.224 10.698 24.101 13.268-2.446 6.395-11.513 23.965-22.669 24.025-6.742 0-10.918-3.884-10.918-3.884-6.98-3.766-18.076-12.67-21.596-15.24-3.52-2.57 1.85-18.826 9.486-23.069Zm-140.613 37.95c-1.193-1.136-2.446-2.271-3.639-3.407-6.562-5.498-13.125-10.996-19.687-16.554-.895-.777-1.79-1.614-2.685-2.391-3.937-4.363-7.874-8.666-11.812-13.028-.417.179-.835.418-1.253.597.836 4.004 1.731 7.949 2.566 11.953-.358.12-.716.299-1.074.418-1.014-2.629-2.446-5.199-2.864-7.888-1.491-8.726-6.323-15.659-11.215-22.771-7.159-10.399-13.721-21.216-19.985-32.212-4.892-8.547-5.966-17.81-3.998-27.731 1.074-5.199.179-10.817.179-17.511-5.846 6.275-7.278 12.849-6.144 20.081 2.207 14.104 6.98 27.252 14.914 39.145.656.957 1.253 1.913.835 4.005-1.61-1.614-3.46-2.989-4.772-4.841-9.247-12.969-14.557-27.611-14.676-43.449-.179-18.527 10.619-27.252 30.664-30.121 7.338-1.076 15.392-.12 22.61 1.853 25.832 7.052 50.053 17.212 67.592 38.966 1.133 1.374 3.102 2.151 4.713 3.108 17.718 10.339 35.436 20.618 53.155 30.898 1.372.777 2.923 1.255 4.474 1.613 13.125 3.108 21.059 20.918 13.781 34.664 0-3.586-.06-5.678 0-7.77.358-7.65-2.088-14.463-8.233-18.885-3.102-2.212-7.875-1.793-11.514-3.407-7.159-3.048-14.079-6.693-21.417-10.219.955 3.047 1.73 5.558 2.506 8.068-.537.358-1.134.777-1.671 1.135-3.937-8.546-15.331-9.263-18.076-19.184-.238-.897-1.73-1.494-2.744-2.092-29.351-17.391-59.18-33.886-91.395-45.6-8.531-3.108-17.182-5.857-25.832 1.733 21.059-3.346 53.93 8.427 58.822 21.396-7.457-3.706-14.198-7.65-21.357-10.399-7.934-3.048-16.167-5.857-24.579-7.172-9.426-1.494-14.019 3.048-13.9 12.551.239 25.638 9.008 47.034 31.439 61.258.895.598 1.611 1.434 3.818 3.347-3.519-.717-5.249-1.016-7.516-1.494.298.896.358 1.553.656 1.912 15.749 19.304 35.735 33.587 56.078 47.393 29.172 19.842 62.223 31.974 93.602 47.393 3.938 1.972 7.756 4.303 11.634 6.454-.418.957-.836 1.913-1.253 2.809-7.338-2.151-15.034-3.466-21.894-6.574-19.508-8.785-38.778-18.168-58.047-27.551-13.781-6.694-27.383-13.805-41.045-20.738l.239.239ZM338.628 99.929c-1.193-11.834-2.744-23.607-3.52-35.44-.656-9.682 1.134-18.826 10.56-24.145 9.903-5.618 20.283-4.064 28.098 2.928 12.886 11.535 25.295 23.846 36.272 37.173 21.119 25.639 37.644 54.027 46.115 86.539 6.563 25.28 8.531 50.501-3.34 74.884-9.009 18.468-23.505 30.122-43.849 34.245-1.61.299-3.4.837-4.951.478-2.029-.478-3.878-1.673-5.847-2.57 1.372-1.792 2.446-4.303 4.236-5.259 9.605-5.08 20.403-8.486 29.053-14.821 22.67-16.734 28.039-40.341 23.207-66.996-3.401-18.586-11.574-35.32-20.701-51.576-15.153-26.954-33.468-51.696-56.496-72.375-5.429-4.84-12.946-8.187-20.045-10.22-9.903-2.808-16.704 2.451-18.315 12.67-.716 4.662-.417 9.503-.298 14.224.179 6.873.656 13.686 1.014 20.559l-1.253-.239.06-.06Z"/>
</svg>
