<svg xmlns="http://www.w3.org/2000/svg" width="88" height="75" fill="none" viewBox="0 0 88 75">
  <path fill="#660018" d="M86.826 42.192c-.706-8.888-3.365-17.226-8.236-24.706C73.453 9.611 66.571 3.818 57.726.608c-1.22-.444-2.67-.762-3.89-.53-2.678.52-5.26 1.455-7.596 2.997-3.288 2.179-5.347 5.427-7.473 8.618-.686 1.041-1.125 2.246-1.735 3.49.048 0-.038.01-.095-.02-.334-.183-.658-.385-.991-.569-6.424-3.691-13.25-5.59-20.693-4.713-.792.096-1.659.27-2.383.058-2.011-.579-3.327.51-4.49 1.802-2.345 2.603-4.28 5.543-5.557 8.81C1.68 23.425.46 26.404.135 29.44c-.562 5.205.677 10.266 2.793 15.057C7.122 54 14.128 60.902 22.84 66.146c5.357 3.23 11.037 5.745 17.176 7.037 3.336.703 6.71 1.34 10.103 1.658 5.186.482 10.333-.222 15.48-.878 2.392-.308 4.794-.674 6.825-2.082 6.071-4.203 10.475-9.822 13.287-16.676 1.715-4.183 1.458-8.666 1.115-13.013Zm-47.41-27.8c-.077-.501.304-1.099.466-1.658.286-.732 3.66-6.738 7.092-8.03-.581 1.832-1.115 3.49-1.64 5.158-.162.665-.276 1.638-.314 2.38.295 3.837 1.153 7.606 2.392 11.385-1.267-.646-3.755-3.191-5.633-4.637-1.887-1.446-2.392-3.817-2.373-4.608h.019l-.01.01ZM75.93 66.223c-3.698 3.49-9.827 5.408-16.766 5.572-8.836.202-11.743-.482-13.745-.849-.019 0-.038-.019-.057-.029a50.827 50.827 0 0 1-7.225-1.744c-7.863-2.526-15.174-6.16-21.694-11.327-.362-.28-.686-.607-1.067-.877a1.329 1.329 0 0 1-.267-.231C4.94 48.506 2.585 38.876 2.118 36.61c-.372-2.449-1.449-4.83-.477-7.432C3.386 21.38 7.122 17.294 8.123 16.05c.133.029.267.058.39.087l-.485 2.641.038 1.523c.248 1.446.41 2.911.781 4.328 1.668 6.362 5.014 11.808 9.399 16.58 2.525 2.757 5.185 5.427 8.035 7.827 5.442 4.588 11.714 7.712 18.444 9.919 5.108 1.677 10.198 3.403 15.565 4.077 1.115.145 2.24.222 3.355.338 1.677.087 3.336.019 4.089-.058 3.746-.694 7.225-2.044 10.513-4.078.639-.337 1.373-.742 1.773-1.243l4.528-5.649c-.458 2.208-2.86 8.454-8.617 13.871v.01Zm8.093-15.693c-4.919 7.114-11.658 10.478-20.265 9.938-6.043-.385-11.695-2.371-17.376-4.26-6.844-2.285-13.363-5.312-19.044-9.823-7.216-5.735-13.116-12.647-16.662-21.351-1.2-2.95-1.61-6.025-.6-9.138.315-.974.82-1.9 1.306-2.805.143-.26.515-.53.79-.55 4.68-.221 9.4-.78 14.003.444 8.855 2.361 16.28 7.008 21.799 14.526 1.296 1.764 2.163 3.721 2.135 5.977 0 .202-.096.414-.143.617-.8-5.013-4.108-8.194-7.702-11.143-6.386-5.244-13.687-8.473-21.827-9.63-1.802-.26-3.756-.155-5.528.26-2.021.472-2.631 2.275-1.773 4.048.038-.067.104-.134.095-.192-.62-2.651 1.268-3.538 3.346-3.605 4.508-.155 8.75 1.098 12.915 2.622 6.5 2.37 12.115 6.16 16.67 11.413 1.145 1.31 2.002 3.007 2.574 4.675.715 2.101-.105 3.807-1.906 5.06-1.973 1.37-1.935 1.302-3.899.048-1.382-.877-2.83-1.696-4.346-2.303-3.994-1.61-7.158-4.357-10.151-7.345-1.163-1.167-2.278-2.381-3.422-3.577-.238-.25-.458-.55-.743-.703-.344-.184-.753-.222-1.135-.328-.028.395-.19.848-.057 1.166.381.916.734 1.918 1.363 2.641 6.072 7.057 12.458 13.785 20.76 18.229 5.07 2.718 10.447 4.231 16.28 3.624 2.974-.309 5.757-1.176 8.216-2.892 1.716-1.205 2.955-2.872 3.756-4.83.143-.356.067-.819.114-1.56-.934 1.03-1.563 1.802-2.268 2.486-3.384 3.278-7.607 4.087-12.048 3.894-6.215-.27-11.743-2.718-16.995-5.928-.134-.077-.286-.125-.42-.183l.277-.463c.915.405 1.83.8 2.735 1.225 2.822 1.34 5.529 3.026 8.474 3.961 3.822 1.225 7.215-.395 10.056-2.997 1.277-1.167 2.411-2.603 3.288-4.097 1.316-2.246 2.603-4.656 2.879-7.24.429-4.019-.467-7.904-2.602-11.393-.944-1.552-1.868-1.63-3.155-.395 3.136-.26 3.44 2.159 4.232 4.202 1.392 3.577.82 6.931-1.01 10.141-.858 1.494-1.745 2.988-2.784 4.357-.448.598-1.306.877-1.973 1.301-.095-.125-.2-.24-.295-.366.248-.337.42-.8.753-.983 2.916-1.61 4.346-4.193 4.899-7.403.524-3.056-.248-7.326-2.059-9.92.038.425.076.85.124 1.273.296 2.4.772 4.791.83 7.191.056 2.256-1.04 4.155-2.908 5.485-.248.174-.657.116-1.21.193-.124.771-1.001.964-1.802.703-1.382-.462-2.898-.896-3.984-1.792-4.27-3.5-6.987-8.126-8.521-13.409-.658-2.265-1.096-4.656-1.21-7.017-.201-3.933 1.372-6.97 4.813-9.177 1.858-1.186 3.412-1.31 5.395-.665 11.161 3.644 18.71 11.21 23.486 21.843 3.088 6.873 4.489 14.112 4.832 21.611.076 1.658-.524 3.037-1.401 4.3l.028.01ZM52.025 34.991c1.2.27 2.764.588 3.45.79.687.203 3.231 1.726 3.851 2.14-.39 1.032-1.84 3.866-3.622 3.876-1.077 0-1.744-.627-1.744-.627-1.116-.607-2.888-2.043-3.45-2.458-.563-.414.295-3.036 1.515-3.72ZM29.56 41.112c-.191-.183-.391-.366-.582-.549a775.346 775.346 0 0 1-3.145-2.67c-.143-.125-.286-.26-.43-.386-.628-.703-1.257-1.397-1.886-2.101-.067.029-.134.067-.2.096.133.646.276 1.282.41 1.928-.058.02-.115.048-.172.068-.162-.424-.391-.839-.458-1.273-.238-1.407-1.01-2.525-1.792-3.672-1.144-1.678-2.192-3.422-3.193-5.196-.781-1.378-.953-2.872-.638-4.473.171-.838.028-1.744.028-2.824-.934 1.012-1.163 2.073-.982 3.239.353 2.275 1.116 4.395 2.383 6.314.105.154.2.308.134.646-.258-.26-.553-.483-.763-.781-1.477-2.092-2.326-4.454-2.345-7.008-.028-2.988 1.697-4.396 4.9-4.858 1.172-.174 2.459-.02 3.612.298 4.127 1.138 7.997 2.777 10.8 6.285.18.222.495.347.752.502 2.831 1.667 5.662 3.325 8.493 4.983.22.125.467.203.715.26 2.097.502 3.365 3.374 2.202 5.591 0-.578-.01-.916 0-1.253.057-1.234-.334-2.333-1.316-3.046-.495-.357-1.258-.29-1.84-.55-1.143-.491-2.249-1.079-3.421-1.648l.4 1.302c-.085.057-.18.125-.267.183-.629-1.379-2.45-1.494-2.888-3.095-.038-.144-.276-.24-.438-.337-4.69-2.805-9.456-5.465-14.603-7.355-1.363-.501-2.745-.944-4.127.28 3.365-.54 8.617 1.359 9.398 3.45-1.191-.597-2.268-1.233-3.412-1.677-1.268-.491-2.583-.944-3.927-1.156-1.506-.241-2.24.491-2.22 2.024.037 4.135 1.438 7.586 5.022 9.88.143.097.258.232.61.54-.562-.115-.838-.164-1.2-.24.047.144.057.25.104.308 2.517 3.113 5.71 5.417 8.96 7.644 4.661 3.2 9.941 5.157 14.955 7.644.63.318 1.24.694 1.859 1.04-.067.155-.134.31-.2.454-1.173-.347-2.402-.56-3.498-1.06-3.117-1.417-6.196-2.93-9.275-4.444-2.202-1.08-4.375-2.227-6.558-3.345l.039.038Zm24.544-24.995c-.191-1.908-.439-3.807-.563-5.716-.105-1.561.181-3.036 1.687-3.894 1.583-.906 3.241-.655 4.49.472 2.059 1.86 4.041 3.846 5.795 5.996 3.374 4.135 6.014 8.714 7.368 13.958 1.049 4.077 1.363 8.145-.534 12.078-1.44 2.979-3.755 4.858-7.006 5.523-.257.049-.543.135-.79.078-.325-.078-.62-.27-.935-.415.22-.29.391-.694.677-.848 1.535-.82 3.26-1.369 4.642-2.39 3.622-2.7 4.48-6.507 3.708-10.807-.544-2.997-1.85-5.696-3.308-8.318-2.42-4.348-5.347-8.338-9.026-11.674-.868-.78-2.069-1.32-3.203-1.648-1.582-.453-2.669.395-2.926 2.044-.114.752-.067 1.532-.048 2.294.029 1.108.105 2.207.162 3.316l-.2-.039.01-.01Z"/>
</svg>
